<?xml version="1.0" encoding="UTF-8"?>
<svg xmlns="http://www.w3.org/2000/svg"
     viewBox="0 0 857 948"
     preserveAspectRatio="xMidYMid meet"
     role="img" aria-label="SyverumX logo">

  <!-- Fondo editable (ocupa todo el lienzo). Cambia 'bg' para colorearlo. -->
  <rect width="100%" height="100%" fill="none" />

  <!-- LOGO: color editable con 'logo' o via currentColor -->
  <g transform="translate(0,948) scale(0.1,-0.1)" fill="#e11d48" stroke="none">
    <path d="M4045 9401 c-112 -41 -276 -135 -890 -511 -431 -264 -1274 -774
-1685 -1020 -604 -361 -726 -447 -803 -563 -58 -87 -66 -131 -78 -442 -13
-316 -6 -1412 10 -1617 36 -455 250 -803 670 -1087 158 -107 258 -168 751
-457 1362 -802 1809 -1050 2011 -1118 132 -44 253 -59 439 -52 103 3 199 13
255 24 395 84 728 398 868 822 85 255 90 538 15 770 -44 136 -144 306 -223
379 -71 66 -517 347 -810 511 -255 142 -672 405 -729 458 -57 54 -86 123 -86
203 0 126 48 224 137 276 45 26 55 28 158 28 l110 0 100 -51 c135 -70 661
-376 1900 -1107 616 -363 678 -415 705 -592 32 -213 29 -954 -4 -1114 -37
-175 -74 -207 -1001 -867 -1043 -743 -1570 -1100 -1654 -1121 -34 -9 -74 15
-372 214 -873 583 -1960 1355 -2206 1566 l-81 70 -6 161 c-4 89 -10 253 -14
366 l-7 205 -150 94 c-432 270 -767 472 -773 466 -12 -12 -21 -959 -12 -1185
12 -282 32 -385 103 -525 71 -141 121 -193 417 -427 378 -298 2545 -1877 2790
-2032 144 -91 186 -105 305 -106 98 0 103 1 179 40 79 40 305 189 541 355 330
233 1579 1128 1915 1373 571 416 768 638 894 1004 71 207 85 454 75 1334 l-6
562 -69 113 c-81 134 -120 174 -262 273 -139 95 -1216 750 -1657 1008 -33 19
-215 127 -405 240 -190 113 -455 268 -590 345 -440 252 -427 248 -800 248
-297 0 -320 -4 -495 -90 -428 -211 -695 -639 -695 -1113 1 -298 115 -577 322
-782 99 -98 434 -315 918 -595 576 -332 634 -374 665 -478 66 -221 -86 -426
-316 -427 -153 0 -310 71 -841 383 -82 48 -214 126 -295 173 -421 247 -1176
708 -1428 872 -164 106 -211 144 -247 201 -61 97 -69 179 -69 731 0 256 3 580
7 720 l7 255 151 90 c349 207 1062 635 1341 805 665 405 1055 632 1109 646 38
9 188 -74 821 -451 215 -128 563 -335 775 -460 875 -518 1079 -643 1109 -679
23 -27 32 -167 38 -583 l6 -432 96 -57 c53 -32 184 -112 291 -179 170 -106
440 -268 510 -305 l23 -12 -6 843 c-6 834 -11 980 -43 1144 -28 144 -67 203
-188 284 -171 115 -846 529 -1401 859 -170 101 -464 276 -652 388 -696 415
-1030 607 -1213 696 -124 61 -191 70 -275 39z"/>
  </g>
</svg>
